<?xml version="1.0" standalone="no"?>
<!DOCTYPE svg PUBLIC "-//W3C//DTD SVG 20010904//EN"
 "http://www.w3.org/TR/2001/REC-SVG-20010904/DTD/svg10.dtd">
<svg version="1.0" xmlns="http://www.w3.org/2000/svg"
 width="512.000000pt" height="512.000000pt" viewBox="0 0 512.000000 512.000000"
 preserveAspectRatio="xMidYMid meet">
<metadata>
Created by potrace 1.14, written by Peter Selinger 2001-2017
</metadata>
<g transform="translate(0.000000,512.000000) scale(0.100000,-0.100000)"
fill="#000000" stroke="none">
<path d="M3690 5114 c-19 -2 -90 -9 -158 -14 -505 -44 -1061 -218 -1523 -477
-1474 -827 -2255 -2497 -1940 -4150 46 -241 160 -355 401 -402 918 -176 1862
-18 2675 447 488 280 947 701 1274 1171 506 726 754 1617 691 2486 -20 278
-66 546 -108 635 -34 72 -122 159 -195 194 -90 42 -334 84 -616 106 -124 9
-417 11 -501 4z m-232 -297 l102 -103 -147 -58 c-82 -32 -213 -90 -293 -128
l-144 -69 -148 148 c-81 81 -144 151 -140 155 13 12 317 97 459 127 209 44
191 49 311 -72z m1388 -49 c34 -50 57 -151 89 -388 19 -137 31 -548 20 -714
l-7 -119 -549 549 -549 549 42 13 c256 77 736 163 883 158 36 -1 43 -6 71 -48z
m-541 -798 l619 -619 -17 -103 c-22 -125 -75 -341 -117 -473 l-32 -98 -357
357 c-377 377 -376 375 -434 345 -29 -16 -37 -28 -37 -64 0 -26 50 -79 382
-411 l381 -383 -18 -48 c-34 -92 -164 -349 -242 -478 -171 -286 -359 -524
-597 -759 l-151 -149 -205 6 c-213 6 -337 21 -527 63 -746 166 -1407 650
-1793 1317 -52 90 -60 110 -50 123 12 13 19 10 56 -27 53 -52 95 -57 131 -15
36 42 30 70 -31 134 l-54 57 48 62 47 62 44 -45 c24 -25 54 -47 67 -51 55 -13
113 46 97 98 -4 13 -29 46 -56 74 l-49 52 46 54 c26 30 49 55 53 57 4 1 27
-18 51 -43 60 -61 115 -62 146 -3 20 39 11 63 -44 121 l-46 47 54 55 54 54 47
-44 c57 -53 96 -59 134 -20 38 37 33 74 -19 132 l-45 50 54 53 54 54 56 -53
c50 -48 60 -53 88 -47 40 8 67 39 67 78 0 20 -13 43 -45 77 l-44 47 42 35 c84
68 71 67 132 10 29 -28 63 -51 74 -51 55 0 101 53 86 101 -4 12 -25 41 -46 63
l-38 42 63 46 63 45 51 -48 c57 -55 91 -62 129 -27 36 34 31 84 -13 129 l-36
37 114 70 c62 38 145 88 183 110 l70 41 391 -390 391 -390 39 3 c33 3 42 8 56
37 12 25 14 40 7 60 -6 14 -174 191 -375 392 l-365 365 113 54 c131 62 446
189 468 190 8 0 294 -279 635 -620z m-3714 -1970 c-38 -80 -95 -211 -127 -293
l-59 -147 -105 105 -104 105 17 105 c24 139 68 316 113 455 l36 113 149 -149
150 -150 -70 -144z m1018 -804 l834 -834 -99 -32 c-120 -38 -390 -104 -497
-121 l-79 -12 -281 281 c-155 154 -292 283 -303 286 -12 4 -34 2 -49 -4 -27
-10 -32 -7 -96 56 -55 55 -66 71 -58 85 27 52 18 64 -223 306 l-232 233 18 52
c44 127 220 538 230 538 1 0 376 -375 835 -834z"/>
</g>
</svg>
